<?xml version="1.0" encoding="UTF-8" standalone="no"?>
<!-- Created with Inkscape (http://www.inkscape.org/) -->

<svg
   xmlns:dc="http://purl.org/dc/elements/1.1/"
   xmlns:cc="http://creativecommons.org/ns#"
   xmlns:rdf="http://www.w3.org/1999/02/22-rdf-syntax-ns#"
   xmlns:svg="http://www.w3.org/2000/svg"
   xmlns="http://www.w3.org/2000/svg"
   xmlns:sodipodi="http://sodipodi.sourceforge.net/DTD/sodipodi-0.dtd"
   xmlns:inkscape="http://www.inkscape.org/namespaces/inkscape"
   width="634.19574"
   height="163.7403"
   id="svg2"
   version="1.1"
   inkscape:version="0.48.2 r9819"
   sodipodi:docname="New document 1">
  <defs
     id="defs4" />
  <sodipodi:namedview
     id="base"
     pagecolor="#ffffff"
     bordercolor="#666666"
     borderopacity="1.0"
     inkscape:pageopacity="0.0"
     inkscape:pageshadow="2"
     inkscape:zoom="0.7"
     inkscape:cx="324.73204"
     inkscape:cy="78.215774"
     inkscape:document-units="px"
     inkscape:current-layer="layer1"
     showgrid="false"
     fit-margin-top="0"
     fit-margin-left="0"
     fit-margin-right="0"
     fit-margin-bottom="0"
     inkscape:window-width="893"
     inkscape:window-height="651"
     inkscape:window-x="297"
     inkscape:window-y="10"
     inkscape:window-maximized="0" />
  <metadata
     id="metadata7">
    <rdf:RDF>
      <cc:Work
         rdf:about="">
        <dc:format>image/svg+xml</dc:format>
        <dc:type
           rdf:resource="http://purl.org/dc/dcmitype/StillImage" />
        <dc:title></dc:title>
      </cc:Work>
    </rdf:RDF>
  </metadata>
  <g
     inkscape:label="Layer 1"
     inkscape:groupmode="layer"
     id="layer1"
     transform="translate(-50.267965,-103.98052)">
    <path
       style="fill:#42ca8c;fill-opacity:1"
       d="m 51.668615,266.83532 c -2.185423,-1.44664 -1.931138,-2.29931 1.598672,-5.36069 2.3086,-2.00224 4.855489,-3.64044 5.659752,-3.64044 0.804263,0 8.839829,-3.58502 17.856814,-7.96672 9.016985,-4.38169 17.199606,-7.96373 18.183606,-7.96009 2.48559,0.009 -8.125451,6.3354 -13.380917,7.97758 -2.367301,0.73971 -4.707487,1.83506 -5.200412,2.43411 -0.492926,0.59904 -4.043902,2.77954 -7.89106,4.84555 -3.847155,2.06601 -7.228929,4.45603 -7.515049,5.31115 -0.294234,0.87937 9.670613,1.05022 22.939301,0.3933 12.902737,-0.63881 45.168818,-1.7595 71.702418,-2.49043 26.53359,-0.73093 48.24289,-1.84145 48.24289,-2.46782 0,-0.62637 -0.99584,-2.21212 -2.21298,-3.52388 -2.4728,-2.66504 -1.74373,-2.48937 9.29451,2.23953 l 6.19633,2.65458 0,-44.09815 c 0,-24.25398 -0.61149,-44.09798 -1.35885,-44.09778 -4.62525,0.001 -43.13127,27.13553 -65.94934,46.47289 -7.02148,5.95042 -11.1326,6.10113 -16.34788,0.59931 -2.1939,-2.31443 -9.5993,-7.6782 -16.45645,-11.91948 -24.179111,-14.95525 -52.147274,-33.67173 -52.73041,-35.28754 -2.355593,-6.52711 -3.54391,3.28331 -4.251626,35.10023 -0.80271,36.08766 -3.113892,51.51697 -7.550917,50.40943 -0.97371,-0.24304 -1.631332,-4.61413 -1.461385,-9.71353 0.169948,-5.09939 0.96662,-27.59507 1.770382,-49.9904 l 1.461384,-40.71877 5.311145,0.48417 c 12.546346,1.14376 46.535067,0.32588 60.731957,-1.46141 20.74612,-2.61178 101.73929,-5.23084 103.73531,-3.35446 0.94117,0.88477 0.64886,14.74384 -0.71493,33.89589 -2.58564,36.31082 -1.72427,61.0646 2.46343,70.79296 2.61742,6.08051 2.59926,6.58851 -0.26554,7.42713 -1.69132,0.4951 -24.35436,0.89026 -50.36228,0.87812 -26.00793,-0.0122 -50.70475,0.40259 -54.88182,0.9216 -16.1927,2.01199 -66.077258,2.89462 -68.616055,1.21406 z M 157.34003,202.8594 c 8.54861,-6.8671 24.30631,-18.40329 35.01712,-25.63599 22.19173,-14.98543 25.67053,-17.58318 25.67053,-19.16912 0,-1.89634 -70.02273,0.58399 -97.37098,3.44905 -14.11879,1.47912 -31.806441,2.47579 -39.305888,2.21481 -7.499447,-0.26097 -14.110082,2.2e-4 -14.690298,0.58044 -1.809085,1.80908 13.286187,13.5466 35.060076,27.2614 11.4936,7.23951 21.22462,13.16276 21.62447,13.16276 0.39985,0 4.14107,2.36482 8.31382,5.25517 4.17276,2.89034 8.16089,5.28036 8.86252,5.31114 0.70164,0.0308 8.27002,-5.56256 16.81863,-12.42966 z m 390.4212,50.27599 c -2.92719,-1.20026 -2.84164,-4.15311 0.12031,-4.15311 3.1374,0 7.03895,-61.24299 5.01801,-78.76814 -1.37849,-11.95383 -1.27213,-12.50087 3.09786,-15.93343 2.48896,-1.95503 8.92364,-7.64403 14.29932,-12.64223 13.62165,-12.66513 26.21602,-22.39478 37.40844,-28.89949 5.24894,-3.05054 10.89566,-6.47586 12.54827,-7.61182 4.57045,-3.14162 10.4978,-0.049 23.05733,12.03036 6.11376,5.88002 15.09823,13.84674 19.96547,17.70381 17.56838,13.92217 17.35799,13.36806 14.90865,39.26283 -2.75618,29.13872 -0.70199,69.28489 3.74239,73.13948 5.29716,4.5942 1.87248,7.28412 -6.33442,4.97539 -6.50649,-1.83037 -98.51945,-0.99869 -118.53713,1.07143 -3.89484,0.40278 -8.07737,0.324 -9.2945,-0.17508 z m 96.48578,-7.68845 c 20.53839,-0.006 23.80452,-1.32398 15.04825,-6.07433 -2.67771,-1.45268 -4.04998,-2.67313 -3.0495,-2.71211 2.12302,-0.0827 10.01382,5.09215 11.80515,7.74194 0.67733,1.00195 1.61351,1.43975 2.08037,0.97288 0.46687,-0.46687 1.19572,-19.36475 1.61965,-41.99529 0.73461,-39.21393 0.61611,-41.14644 -2.52297,-41.14644 -1.81157,0 -3.29377,0.79667 -3.29377,1.77038 0,0.97371 -0.67539,1.77038 -1.50086,1.77038 -0.82546,0 -11.7797,6.17421 -24.34275,13.72046 -20.93221,12.57337 -22.88745,14.19055 -23.38689,19.34334 -0.4602,4.74787 0.74315,6.81412 7.7327,13.27786 4.55273,4.21024 9.89284,8.2696 11.86692,9.0208 1.97407,0.7512 3.09141,1.86362 2.48298,2.47205 -1.28825,1.28826 -14.09284,-6.72085 -20.95114,-13.10469 -5.06532,-4.71491 -7.90438,-4.17761 -10.22871,1.93584 -0.80142,2.10791 -10.71102,10.07388 -22.02133,17.70216 -11.31033,7.62828 -21.08969,14.71984 -21.73195,15.75902 -0.82085,1.32819 7.98777,1.54214 29.65467,0.72029 16.95232,-0.64302 39.78495,-1.17157 50.73918,-1.17454 z m 0.68907,-15.99775 c -5.48848,-4.57236 -3.01048,-4.52044 2.81121,0.0589 2.47574,1.94742 3.7964,3.51426 2.93481,3.48186 -0.86159,-0.0324 -3.4473,-1.62573 -5.74602,-3.54076 z m -75.64268,8.53288 c 18.2788,-11.54551 43.52934,-33.45161 43.52934,-37.76385 0,-4.67088 -19.07917,-16.25847 -24.08065,-14.62521 -0.87443,0.28555 -5.1749,-2.91284 -9.55659,-7.10753 -7.35201,-7.03822 -17.37909,-13.75423 -18.512,-12.39907 -1.02583,1.22709 -2.45488,77.58473 -1.45201,77.58473 0.58576,0 5.11812,-2.56008 10.07191,-5.68907 z m 30.48792,-65.68662 c -2.56431,-5.24127 -4.66239,-10.44602 -4.66239,-11.5661 0,-1.12009 -0.88958,-2.03652 -1.97686,-2.03652 -2.06057,0 -1.68305,2.05887 2.26757,12.36651 2.52391,6.58516 6.98409,12.81568 8.26051,11.53926 0.42546,-0.42546 -1.32451,-5.06187 -3.88883,-10.30315 z m 22.76871,1.00303 c -2.26384,-4.62513 -5.43576,-10.00266 -7.0487,-11.95008 -2.83654,-3.42474 -2.90132,-3.35423 -1.97697,2.15154 1.11903,6.66535 8.12425,18.15429 11.08861,18.18593 1.2631,0.0135 0.46929,-3.21395 -2.06294,-8.38739 z m 14.88295,1.21189 c 8.36921,-4.36228 11.56567,-7.83104 9.81963,-10.65619 -0.90881,-1.47047 -1.76881,-1.20648 -2.95089,0.90581 -1.31313,2.34642 -2.20324,2.53713 -4.18097,0.89576 -1.38196,-1.14693 -2.51267,-3.15476 -2.51267,-4.46183 0,-1.30708 -1.59334,-3.22925 -3.54076,-4.27147 -2.93547,-1.57102 -3.54076,-1.34636 -3.54076,1.31417 0,1.76502 1.27627,5.03126 2.83615,7.2583 4.89409,6.98731 1.58201,5.92417 -5.54648,-1.78037 -4.22603,-4.56752 -7.1172,-6.52083 -7.58306,-5.12324 -0.8834,2.6502 6.70027,19.57571 8.77111,19.57571 0.77728,0 4.5702,-1.64549 8.4287,-3.65665 z m -46.64467,-5.041 c -2.03468,-3.29219 -4.23851,-2.11088 -3.23328,1.73313 0.62399,2.38608 1.55908,3.05521 2.68965,1.92464 0.95323,-0.95322 1.19786,-2.59921 0.54363,-3.65777 z m -3.88107,-6.35059 c -0.56048,-1.46056 -1.82802,-2.65557 -2.81678,-2.65557 -1.03622,0 -0.86416,1.12491 0.40618,2.65557 1.21216,1.46057 2.47972,2.65557 2.81678,2.65557 0.33707,0 0.1542,-1.195 -0.40618,-2.65557 z m -4.20809,-10.17969 c -0.0395,-3.22727 -3.13354,-7.60917 -4.44603,-6.29669 -0.61867,0.61869 -0.23563,2.78646 0.85122,4.81728 2.23408,4.1744 3.63488,4.75089 3.59481,1.47941 z m 36.27701,-2.65557 c -0.71881,-1.704 -2.99488,-8.04776 -5.05796,-14.09725 -2.06306,-6.0495 -4.68896,-11.37981 -5.83533,-11.84514 -2.07388,-0.84183 -1.47236,2.06941 3.07402,14.8775 4.43685,12.49955 5.27343,14.16305 7.12259,14.16305 1.22582,0 1.49628,-1.20269 0.69668,-3.09816 z m -31.42471,-4.96479 c -1.61246,-3.07748 -2.98798,-4.09975 -3.7838,-2.81209 -0.68769,1.11273 -0.46035,2.02314 0.50521,2.02314 0.96555,0 2.28033,1.65338 2.9217,3.67418 0.64137,2.0208 1.55408,3.28623 2.02822,2.81208 0.47416,-0.47415 -0.27795,-3.03794 -1.67133,-5.69731 z m 7.57258,-3.4291 c -1.12754,-3.41647 -2.8702,-6.21176 -3.87257,-6.21176 -1.03381,0 -1.2791,1.34073 -0.56682,3.09817 0.69062,1.70399 2.11079,5.46679 3.1559,8.36178 2.62827,7.28038 3.81577,2.42472 1.28349,-5.24819 z m 37.17291,8.97754 c 0,-0.40927 -2.39002,-7.51555 -5.31115,-15.79173 -2.92112,-8.27618 -5.31114,-16.30638 -5.31114,-17.84488 0,-1.5385 -1.24868,-2.79727 -2.77488,-2.79727 -1.82322,0 -2.4501,1.06251 -1.8279,3.09817 0.52085,1.70399 2.09364,7.47986 3.49509,12.83526 3.08576,11.79153 4.65734,16.11977 6.91043,19.03161 1.62171,2.09585 4.81955,3.07045 4.81955,1.46884 z m 1.90544,-19.03132 c -2.76085,-10.91775 -3.15352,-14.86082 -1.57691,-15.83522 1.59577,-0.98624 1.54382,-1.96685 -0.21655,-4.08798 -2.64426,-3.18614 -7.19351,-3.73791 -7.19351,-0.8725 0,2.91439 6.86659,29.18391 9.0881,34.76836 3.6532,9.18342 3.59129,0.62884 -0.10109,-13.97266 z m 21.089,9.49128 c -0.0177,-5.47704 -1.44699,-7.94564 -8.83562,-15.25511 -4.84831,-4.79636 -9.31584,-8.21993 -9.92782,-7.60794 -1.33467,1.33466 4.05978,24.17593 6.58525,27.88345 1.26051,1.85047 1.57534,-0.10656 1.08369,-6.73639 -1.01241,-13.65219 4.3876,-10.71107 6.68329,3.64005 1.32676,8.29404 4.43904,6.93654 4.41121,-1.92406 z m 11.35078,7.45163 c 2.12057,-0.81373 2.34689,-1.84891 0.96769,-4.42595 -2.29792,-4.29373 -6.98681,-4.37298 -6.98681,-0.1181 0,5.00379 1.62472,6.23034 6.01912,4.54405 z m -63.55651,-18.41204 c -0.60179,-0.97371 -1.89082,-1.77038 -2.86453,-1.77038 -0.97371,0 -1.27803,0.79667 -0.67624,1.77038 0.60179,0.97371 1.89082,1.77039 2.86453,1.77039 0.97371,0 1.27802,-0.79668 0.67624,-1.77039 z m -415.69577,114.039 c -2.732,-2.35144 -4.32534,-4.24884 -3.54076,-4.21644 1.96221,0.081 10.05997,6.94674 9.20142,7.80147 -0.38136,0.37967 -2.92866,-1.23359 -5.66066,-3.58503 z m -21.29475,-12.8113 c -3.7333,-2.55345 -5.92178,-4.93132 -4.86328,-5.28415 1.05849,-0.35284 5.2658,1.81568 9.34957,4.81891 8.98836,6.61012 5.0891,7.01448 -4.48629,0.46524 z m -53.1781,0.61596 c 0.51255,-1.33569 2.02475,-2.84788 3.36044,-3.36044 1.53214,-0.58794 2.08455,-0.0355 1.49662,1.49662 -0.51256,1.33569 -2.02475,2.84788 -3.36044,3.36044 -1.53215,0.58793 -2.08456,0.0355 -1.49662,-1.49662 z M 415.82281,211.7073 c 0.92585,-3.54049 0.38897,-3.62354 -20.08254,-3.10629 -17.73113,0.448 -21.72115,0.0463 -25.41112,-2.5586 -2.40748,-1.69952 -3.60249,-3.13233 -2.65557,-3.18402 0.94694,-0.0517 13.07675,-0.3197 26.95512,-0.59559 13.87838,-0.27589 25.69293,-0.96116 26.25458,-1.52281 0.56165,-0.56165 -0.3454,-3.10684 -2.01567,-5.65599 -1.67025,-2.54914 -2.48726,-5.18438 -1.81558,-5.85607 0.6717,-0.6717 1.96244,-0.0493 2.86829,1.38304 0.90585,1.43236 1.65922,1.97058 1.67412,1.19604 0.0273,-1.41452 5.8811,4.11856 10.43329,9.86155 2.15767,2.72209 1.74865,3.68651 -3.54077,8.34876 -7.1782,6.3271 -14.119,7.25332 -12.66415,1.68998 z"
       id="path3066"
       inkscape:connector-curvature="0" />
  </g>
</svg>
